<svg width="180" height="40" viewBox="0 0 180 40" fill="none" xmlns="http://www.w3.org/2000/svg">
  <path d="M10 5H30C32.7614 5 35 7.23858 35 10V30C35 32.7614 32.7614 35 30 35H10C7.23858 35 5 32.7614 5 30V10C5 7.23858 7.23858 5 10 5Z" fill="#00BBB9"/>
  <path d="M15 12V28" stroke="white" stroke-width="3" stroke-linecap="round"/>
  <path d="M15 12H23" stroke="white" stroke-width="3" stroke-linecap="round"/>
  <path d="M15 20H22" stroke="white" stroke-width="3" stroke-linecap="round"/>
  <path d="M25 16V28" stroke="white" stroke-width="3" stroke-linecap="round"/>
  <path d="M25 16C25 14 26.5 12 29 12" stroke="white" stroke-width="3" stroke-linecap="round"/>
  <text x="45" y="25" font-family="Arial, sans-serif" font-size="18" font-weight="bold" fill="#333333">Job Board</text>
  <path d="M160 20L165 25L170 20" stroke="#FF6700" stroke-width="2" stroke-linecap="round" stroke-linejoin="round"/>
  <path d="M165 15V25" stroke="#FF6700" stroke-width="2" stroke-linecap="round"/>
</svg> 